<svg xmlns="http://www.w3.org/2000/svg" xmlns:xlink="http://www.w3.org/1999/xlink" width="1200" height="267" viewBox="0 0 1200 267">
    <defs>
        <path id="a" d="M0 358.718L270.43 173.64c30.197-19.643 56.857-21.202 88.884-3.94l113.258 61.043c30.48 16.426 65.75 17.324 91.054-5.592 55.92-50.639 111.849-101.27 167.836-151.85 14.71-13.292 30.294-31.074 53.399-31.728 15.999-.451 31.008 5.328 46.036 9.265 16.71 4.376 33.704 8.086 50.541 12.075 36.075 8.544 72.205 16.894 108.338 25.244 52.25 12.075 116.02 31.29 169.575 17.108 73.674-19.51 122.321-80.307 196.898-99.316 29.727-7.577 60.71-9.618 88.517 4.151 23.635 11.704 41.763 33.267 69.704 37.569 1.725.266 3.627.534 4.755 1.708.923.961 1.093 2.298 1.222 3.55 2.86 27.468 5.54 54.934 8.133 82.42l8.802 93.294c4.05 42.949 8.103 85.897 12.156 128.849.038.41.079.818.115 1.228H0z"/>
        <linearGradient id="b" x1="12.519%" x2="62.13%" y1="72.043%" y2="72.043%">
            <stop offset="0%" stop-color="#0080B3" stop-opacity=".8"/>
            <stop offset="100%" stop-color="#46B86C" stop-opacity=".6"/>
        </linearGradient>
    </defs>
    <g fill="none" fill-rule="evenodd" transform="translate(-104 -27)">
        <mask id="c" fill="#fff">
            <use xlink:href="#a"/>
        </mask>
        <path fill="url(#b)" d="M0 358.718L270.43 173.64c30.197-19.643 56.857-21.202 88.884-3.94l113.258 61.043c30.48 16.426 65.75 17.324 91.054-5.592 55.92-50.639 111.849-101.27 167.836-151.85 14.71-13.292 30.294-31.074 53.399-31.728 15.999-.451 31.008 5.328 46.036 9.265 16.71 4.376 33.704 8.086 50.541 12.075 36.075 8.544 72.205 16.894 108.338 25.244 52.25 12.075 116.02 31.29 169.575 17.108 73.674-19.51 122.321-80.307 196.898-99.316 29.727-7.577 60.71-9.618 88.517 4.151 23.635 11.704 41.763 33.267 69.704 37.569 1.725.266 3.627.534 4.755 1.708.923.961 1.093 2.298 1.222 3.55 2.86 27.468 5.54 54.934 8.133 82.42l8.802 93.294c4.05 42.949 8.103 85.897 12.156 128.849.038.41.079.818.115 1.228H0z" mask="url(#c)"/>
    </g>
</svg>
