<svg xmlns="http://www.w3.org/2000/svg" xmlns:xlink="http://www.w3.org/1999/xlink" width="1200" height="281" viewBox="0 0 1200 281">
    <defs>
        <path id="a" d="M1580.199 349.882h.245-.245m0 0H0V0h1595.682v348.656"/>
        <linearGradient id="b" x1="12.519%" x2="62.13%" y1="72.043%" y2="72.043%">
            <stop offset="0%" stop-color="#0080B3" stop-opacity=".8"/>
            <stop offset="100%" stop-color="#46B86C" stop-opacity=".6"/>
        </linearGradient>
    </defs>
    <g fill="none" fill-rule="evenodd" transform="translate(-96)">
        <mask id="c" fill="#fff">
            <use xlink:href="#a"/>
        </mask>
        <path fill="url(#b)" d="M1595.684 348.658c-14.142-22.585-44.134-43.298-64.217-62.423l-66.434-63.264c-18.781-17.885-37.76-35.922-60.502-49.792-42.49-25.915-93.646-44.271-139.435-65.386l-153.315-70.705c-12.7-5.856-25.415-11.722-37.536-18.466-25.315-14.086-49.476-26.03-79.255-13.063L789.91 94.851c-14.259 6.21-30.654 7.447-45.905 3.468l-150.33-39.23c-17.32-4.52-36.01-2.287-51.336 6.131l-64.358 35.355-124.421 68.347c-29.745 16.34-59.312 32.95-88.98 49.405-11.701 6.488-23.971 13.153-37.738 14.29-15.655 1.292-30.924-4.808-44.048-12.431-7.942-4.615-15.447-9.847-23.838-13.795-8.391-3.95-17.95-6.588-27.379-5.467-24.031 2.858-37.302 25.903-49.446 41.693l-33.659 43.761c-11.132 14.474-22.266 28.948-33.398 43.424C13.529 331.81 2.799 349.399 0 349.399H1559.091c11.656 0 25.577 1.48 36.593-.74" mask="url(#c)"/>
    </g>
</svg>
